<svg t="1575254700818"
           class="icon"
           viewBox="0 0 1024 1024"
           version="1.1"
           xmlns="http://www.w3.org/2000/svg"
           p-id="1907"
           width="32"
           height="32"
           slot="right">
        <path d="M621.93259435 611.38542038L423.92102316 703.33559492c-9.52523406 4.42304387-20.93769289 0.2488718-25.36137327-9.27636225-4.42304387-9.52523406-0.2488718-20.93769289 9.27636226-25.36137326l198.01157118-91.95017455c9.52523406-4.42304387 20.93769289-0.2488718 25.36137327 9.27636226 4.42368037 9.52587056 0.2488718 20.93832939-9.27636225 25.36137326zM600.48824684 870.32029948l-189.07064485-109.15988242c-9.09495954-5.25113136-12.24054635-16.98884212-6.98941498-26.08443814 5.25113136-9.09495954 16.98884212-12.24054635 26.08443815-6.98941498l189.07064483 109.15988241c9.09495954 5.25113136 12.24054635 16.98884212 6.98941499 26.08443814-5.25113136 9.09559604-16.98884212 12.24054635-26.08443814 6.98941499z"
              fill="#F9C73D"
              p-id="1908"></path>
        <path d="M358.28506354 712.46556199m-92.29261194 0a92.29261195 92.29261195 0 1 0 184.58522388 0 92.29261195 92.29261195 0 1 0-184.58522388 0Z"
              fill="#FFEABB"
              p-id="1909"></path>
        <path d="M358.28506354 823.85319711c-61.419142 0-111.38763511-49.96849311-111.38763512-111.38763512s49.96849311-111.38763511 111.38763512-111.38763511 111.38763511 49.96849311 111.38763512 111.38763511-49.96849311 111.38763511-111.38763512 111.38763512z m1e-8-184.5852239c-40.36115047 0-73.19758879 32.83643833-73.19758879 73.19758877s32.83643833 73.19758879 73.19758879 73.1975888 73.19758879-32.83643833 73.1975888-73.19758879-32.83643833-73.19758879-73.1975888-73.19758878zM683.85520847 640.54097475c-50.89014624 0-92.29261195-41.40246571-92.29261196-92.29261196s41.40246571-92.29261195 92.29261196-92.29261194 92.29261195 41.40246571 92.29261195 92.29261194-41.40246571 92.29261195-92.29261195 92.29261195z m0-146.39517759c-29.83215469 0-54.10256563 24.27041094-54.10256564 54.10256563s24.27041094 54.10256563 54.10256564 54.10256564 54.10256563-24.27041094 54.10256562-54.10256564-24.27041094-54.10256563-54.10256562-54.10256563zM683.85520847 979.15938549c-50.89014624 0-92.29261195-41.40246571-92.29261196-92.29261195s41.40246571-92.29261195 92.29261196-92.29261195 92.29261195 41.40246571 92.29261195 92.29261195-41.40246571 92.29261195-92.29261195 92.29261196z m0-146.39517756c-29.83215469 0-54.10256563 24.27041094-54.10256564 54.10256561s24.27041094 54.10256563 54.10256564 54.10256564 54.10256563-24.27041094 54.10256562-54.10256564-24.27041094-54.10256563-54.10256562-54.10256561z"
              fill="#F9C73D"
              p-id="1910"></path>
      </svg>